<svg width="32" height="32" viewBox="0 0 32 32" fill="none" xmlns="http://www.w3.org/2000/svg">
  <!-- Unchained Academy Favicon - Broken Infinity -->
  <rect width="32" height="32" rx="6" fill="#0a0a0a"/>

  <!-- Left loop -->
  <path d="M5 16C5 12 8 9 12 9C14.5 9 16.8 10.5 18 12.5L19 14" stroke="#22d3ee" stroke-width="2.5" stroke-linecap="round"/>

  <!-- Right loop -->
  <path d="M21 18L22 19.5C23.2 21.5 25.5 23 28 23C32 23 35 20 35 16C35 12 32 9 28 9C25.5 9 23.2 10.5 22 12.5L21 14" stroke="#22d3ee" stroke-width="2.5" stroke-linecap="round"/>

  <!-- Bottom of left loop -->
  <path d="M18 19.5C16.8 21.5 14.5 23 12 23C8 23 5 20 5 16" stroke="#22d3ee" stroke-width="2.5" stroke-linecap="round"/>

  <!-- Break point -->
  <circle cx="20" cy="16" r="2" fill="#fafafa"/>
</svg>