<svg width="64" height="40" viewBox="0 0 64 40" fill="none" xmlns="http://www.w3.org/2000/svg">
  <!-- Unchained Academy - Broken Infinity Icon -->

  <!-- Left loop of infinity - breaks before center -->
  <path d="M6 20C6 13.4 11.4 8 18 8C22.5 8 26.5 10.5 28.5 14.5L30 17" stroke="#22d3ee" stroke-width="4" stroke-linecap="round"/>

  <!-- Right loop - breaks after center -->
  <path d="M34 23L35.5 25.5C37.5 29.5 41.5 32 46 32C52.6 32 58 26.6 58 20C58 13.4 52.6 8 46 8C41.5 8 37.5 10.5 35.5 14.5L34 17" stroke="#22d3ee" stroke-width="4" stroke-linecap="round"/>

  <!-- Bottom of left loop -->
  <path d="M28.5 25.5C26.5 29.5 22.5 32 18 32C11.4 32 6 26.6 6 20" stroke="#22d3ee" stroke-width="4" stroke-linecap="round"/>

  <!-- The break point - transformation moment -->
  <circle cx="32" cy="20" r="3" fill="#fafafa"/>
</svg>